PathFileType	4	(X/Y/Z)	..\data\2014050\dynamic\2014050_C4_04.trc
DataRate	CameraRate	NumFrames	NumMarkers	Units	OrigDataRate	OrigDataStartFrame	OrigNumFrames
100.000000	100.000000	4	52	mm	100.000000	20	165
Frame#	Time	L_IAS			L_IPS			R_IPS			R_IAS			L_FTC			L_FLE			L_FME			L_FAX			L_TTC			L_FAL			L_TAM			L_FCC			L_FM1			L_FM2			L_FM5			R_FTC			R_FLE			R_FME			R_FAX			R_TTC			R_FAL			R_TAM			R_FCC			R_FM1			R_FM2			R_FM5			CV7			TV10			SXS			SJN			L_SIA			L_SRS			L_SAA			L_SAE			L_HLE			L_HME			L_UOA			L_RSP			L_UHE			L_HM2			L_HM5			R_SIA			R_SRS			R_SAA			R_SAE			R_HLE			R_HME			R_UOA			R_RSP			R_UHE			R_HM2			R_HM5			
		X1	Y1	Z1	X2	Y2	Z2	X3	Y3	Z3	X4	Y4	Z4	X5	Y5	Z5	X6	Y6	Z6	X7	Y7	Z7	X8	Y8	Z8	X9	Y9	Z9	X10	Y10	Z10	X11	Y11	Z11	X12	Y12	Z12	X13	Y13	Z13	X14	Y14	Z14	X15	Y15	Z15	X16	Y16	Z16	X17	Y17	Z17	X18	Y18	Z18	X19	Y19	Z19	X20	Y20	Z20	X21	Y21	Z21	X22	Y22	Z22	X23	Y23	Z23	X24	Y24	Z24	X25	Y25	Z25	X26	Y26	Z26	X27	Y27	Z27	X28	Y28	Z28	X29	Y29	Z29	X30	Y30	Z30	X31	Y31	Z31	X32	Y32	Z32	X33	Y33	Z33	X34	Y34	Z34	X35	Y35	Z35	X36	Y36	Z36	X37	Y37	Z37	X38	Y38	Z38	X39	Y39	Z39	X40	Y40	Z40	X41	Y41	Z41	X42	Y42	Z42	X43	Y43	Z43	X44	Y44	Z44	X45	Y45	Z45	X46	Y46	Z46	X47	Y47	Z47	X48	Y48	Z48	X49	Y49	Z49	X50	Y50	Z50	X51	Y51	Z51	X52	Y52	Z52	

21	0.2	165.0637512207032	878.447448730469	-283.1040344238282	-31.25213241577149	896.8215942382815	-222.4574127197266	-23.47698974609375	900.9434814453127	-113.2423934936524	179.0027923583985	898.373718261719	-73.76100921630861	96.41949462890628	789.379089355469	-369.3201293945313	71.31811523437501	415.9948730468751	-349.7230834960938	111.3094482421875	392.6687316894532	-221.7099304199219	15.33063507080078	383.9029235839844	-350.7041931152344	61.69487762451173	334.5946960449219	-308.1464233398438	-220.0059051513672	192.6183776855469	-301.5414123535157	-194.0218200683594	169.3841552734375	-222.9665679931641	-270.8885803222657	200.6042480468751	-236.2215118408204	-202.3501586914063	49.24414062500001	-237.7476196289063	-190.0732116699219	55.03670120239259	-287.8153991699219	-232.5079040527344	80.32225036621095	-328.9917602539063	118.2669219970703	798.8464965820315	25.15411186218262	191.8317260742188	437.1703186035157	-31.1692066192627	204.9276428222657	434.0010986328126	-168.8573303222657	171.338623046875	379.0992736816407	-27.83598327636719	236.580062866211	378.9382934570313	-86.87474822998048	169.2449951171875	55.1415367126465	-69.04907989501955	186.1363525390625	73.54617309570314	-157.3662719726563	122.5498046875	16.40329933166504	-117.1675872802735	300.1217651367188	12.44096088409424	-160.6517944335938	311.8281250000001	32.51727676391602	-105.9396286010742	275.7517089843751	13.76285552978516	-51.61459350585939	39.34748077392579	1376.838134765625	-170.6352844238282	-42.47193145751954	1152.735107421875	-179.1141357421875	181.9700622558594	1056.131713867188	-174.2517852783203	150.6221923828125	1284.38916015625	-171.2145538330078	-42.73556137084962	1200.211181640625	-267.5729064941407	-5.963968753814698	1315.08642578125	-267.9866943359376	44.58970642089844	1328.1318359375	-330.7420959472657	94.18086242675783	1327.809448242188	-340.1329040527344	81.4854202270508	1036.681518554688	-429.2949829101564	41.5367774963379	1011.221618652344	-358.0157165527344	51.998592376709	993.2622680664065	-410.8530883789064	211.815658569336	837.214782714844	-386.0133361816407	171.5714721679688	826.018981933594	-443.0417785644532	261.0018310546876	774.8745117187502	-381.6145935058594	185.4607696533203	755.4983520507814	-438.8913879394532	-52.04964447021486	1203.860717773438	-99.92509460449222	-7.413133621215822	1307.889892578125	-89.63533020019533	35.19019317626954	1316.546630859375	-19.00432395935059	90.72601318359376	1318.9619140625	-7.968481540679933	-8.190377235412599	1028.876098632813	62.85519409179689	-33.45343017578126	1020.453125	-11.32549858093262	-41.84900283813477	1001.174499511719	36.53169250488282	41.25029754638673	797.7095336914065	58.84244918823244	-22.49620056152344	810.0303344726565	90.48892974853517	38.99233627319337	710.4605712890626	58.03561782836915	-47.40819931030274	739.9160766601564	89.57621002197267	
22	0.21	176.0408325195313	879.441589355469	-282.2944335937501	-19.98950386047364	897.7910156250002	-221.4595489501954	-12.17323398590088	902.2359619140627	-112.3942184448242	189.9870758056641	898.982849121094	-72.66918945312501	108.2930679321289	790.274597167969	-368.2724609375001	93.7415237426758	416.8166809082032	-348.7291259765626	134.4143524169922	393.2659912109376	-220.7572784423829	37.88554000854493	385.3833007812501	-349.2114257812501	84.67663574218751	335.4751281738282	-307.4400939941407	-199.1118621826172	197.234115600586	-299.4305725097657	-172.0336151123047	171.9426879882813	-221.5098876953126	-249.469711303711	203.2948303222657	-233.0490722656251	-179.8390655517578	52.1933937072754	-242.2288818359376	-168.6481323242188	59.71858596801759	-291.9948730468751	-211.5808105468751	87.42018127441408	-331.2518005371094	128.0211181640625	799.1243286132815	25.73583221435548	196.3989257812501	436.8286437988282	-31.03852462768555	208.8294372558594	433.413299560547	-168.9118957519532	174.8309020996094	378.8882141113282	-27.81659507751466	240.3929138183594	378.0910644531251	-86.72195434570314	169.5950469970703	55.31976699829103	-69.45825958251955	186.5450134277344	73.38962554931642	-157.9368896484375	122.739486694336	16.49377632141114	-117.3300018310547	300.3323059082032	12.49529552459717	-160.5997161865235	312.3609924316407	32.54818344116212	-105.7528991699219	275.8554992675782	13.99340152740479	-51.24890518188478	50.91730880737306	1378.083374023438	-170.0337829589844	-31.0246696472168	1154.01220703125	-177.8787994384766	193.1174621582032	1057.19482421875	-174.1032409667969	162.0766143798828	1285.521362304688	-170.9791412353516	-31.6607894897461	1201.259033203125	-266.1904602050782	5.26180124282837	1316.135375976563	-267.0863342285157	55.43248367309572	1329.17724609375	-330.1054992675782	105.0067977905274	1328.757080078125	-339.8435668945313	88.47674560546876	1037.1416015625	-427.6297912597657	48.76895904541017	1012.752014160156	-355.8357543945313	58.22938156127931	994.6608886718752	-408.8000793457032	213.9896087646485	834.344421386719	-385.489715576172	173.2664642333985	824.5963134765627	-442.4949645996095	261.0281677246094	770.1522216796877	-381.5216979980469	184.9209747314453	753.7889404296876	-438.8755798339845	-40.15734481811524	1205.382202148438	-98.43653869628909	4.440083980560304	1309.311401367188	-88.69618225097658	47.42473983764649	1317.982421875	-18.15906524658203	103.2415390014649	1320.363403320313	-7.616158962249758	9.114514350891115	1029.010131835938	65.09817504882814	-16.86439514160157	1019.739135742188	-8.751884460449221	-24.2896842956543	1000.387329101563	39.13256072998048	64.0976028442383	799.0784912109377	61.43037033081056	0.01641402393579483	809.8125610351565	93.06977844238283	64.63888549804689	711.8770751953126	61.66785049438478	-22.53522491455078	738.8388061523439	92.73999786376955	
23	0.22	186.9429931640625	880.660583496094	-281.6363220214844	-8.822022438049318	898.9387817382815	-220.4465789794922	-0.9664521217346194	903.5285644531252	-111.5940933227539	200.8416900634766	899.5454101562502	-71.67274475097658	119.8755035400391	791.4732055664065	-367.2924499511719	116.0863113403321	418.1128234863282	-347.4988098144532	157.0461730957032	394.5091857910157	-219.4228515625001	60.38941955566408	387.2505798339845	-347.4251708984376	107.8651199340821	336.7328796386719	-306.4831542968751	-177.0925903320313	200.6702117919922	-297.4114074707032	-149.0313873291016	173.6407318115235	-220.0568389892579	-227.2808685302735	204.2395019531251	-230.2177276611329	-154.8451843261719	54.55703353881837	-246.4186706542969	-144.6703186035157	64.0161819458008	-295.8782348632813	-188.2135772705078	93.31517791748048	-333.3955078125001	137.7769165039063	799.3376464843752	26.16171646118165	200.5333557128907	436.4787597656251	-31.0166358947754	212.1609039306641	432.810516357422	-169.0836334228516	177.8944396972657	378.6531677246094	-27.90655517578126	243.7397460937501	377.2714233398438	-86.69028472900392	169.8653717041016	55.49946212768556	-69.92730712890626	186.8650817871094	73.22422790527345	-158.5310668945313	122.8784790039063	16.5592098236084	-117.5610656738282	300.5464477539063	12.61820411682129	-160.4969482421875	312.7955017089844	32.61194229125977	-105.5215835571289	275.8598022460938	14.19614124298096	-50.97346496582033	62.36702728271486	1379.33740234375	-169.5240020751953	-19.68808937072754	1155.28271484375	-176.6731109619141	204.2775268554688	1058.28173828125	-174.1044464111328	173.3666381835938	1286.629150390625	-170.7707977294922	-20.73045921325684	1202.254760742188	-264.8035888671876	16.3425464630127	1317.139526367188	-266.2332763671876	66.10741424560548	1330.167846679688	-329.5307006835938	115.6248092651367	1329.666137695313	-339.6631774902344	95.24047088623048	1037.617797851563	-426.0625000000001	55.76771163940431	1014.301452636719	-353.7922058105469	64.27085876464845	996.1272583007815	-406.8591918945314	215.8114013671876	831.6560668945315	-384.9890136718751	174.6683654785157	823.3792114257815	-441.9936523437501	260.5743713378907	765.6238403320314	-381.3971252441407	184.0637817382813	752.3530273437501	-438.8968200683595	-28.36134147644044	1206.90283203125	-96.99790954589847	16.14433097839356	1310.749389648438	-87.84494018554689	59.52656936645509	1319.444091796875	-17.42514991760254	115.5382690429688	1321.830810546875	-7.377594947814943	26.58472061157227	1029.203857421875	67.28499603271486	-0.1892441809177399	1019.042114257813	-6.208780765533449	-6.556204795837404	999.6612548828127	41.70564651489259	87.17230224609376	800.6638183593752	63.88071823120119	22.82735252380371	809.7785644531252	95.58563232421876	90.56494140625001	713.6627197265626	65.21475982666017	2.730243444442749	738.0085449218751	95.89291381835939	
24	0.23	197.8058776855469	882.0899047851565	-281.0770874023438	2.277615785598755	900.2351684570315	-219.4626007080079	10.15534400939942	904.809265136719	-110.8602676391602	211.6004028320313	900.094665527344	-70.78149414062501	131.2416381835938	792.916442871094	-366.3860778808594	138.2999572753907	419.830291748047	-346.0686035156251	179.2032928466797	396.3444213867189	-217.7624511718751	82.78589630126955	389.4320068359376	-345.4056701660157	131.1970825195313	338.3360900878907	-305.3249511718751	-154.0103912353516	202.7760314941407	-295.5406799316407	-125.0848464965821	174.416748046875	-218.6446075439454	-204.3635559082032	203.4507141113282	-227.8198394775391	-127.5803833007813	56.2621421813965	-250.0813598632813	-118.3331680297852	67.71228027343751	-299.2303771972657	-162.5838470458985	97.73976135253909	-335.2718200683594	147.6166534423828	799.5232543945315	26.4618263244629	204.3154754638672	436.135955810547	-31.08068466186524	215.0224304199219	432.2310485839845	-169.3408966064453	180.6470031738282	378.4177246093751	-28.06995391845704	246.6882629394532	376.5012207031251	-86.77215576171876	170.0802154541016	55.67877578735353	-70.43833160400392	187.088623046875	73.05915832519533	-159.1348266601563	122.9594268798828	16.61931037902832	-117.8432540893555	300.7559204101563	12.74588871002198	-160.3653411865235	313.1425476074219	32.6557731628418	-105.2767562866211	275.7878723144532	14.34132289886475	-50.7907066345215	73.70194244384767	1380.575317382813	-169.0906524658203	-8.443594932556154	1156.520263671875	-175.4981842041016	215.4681396484376	1059.381958007813	-174.234359741211	184.4988403320313	1287.69677734375	-170.5617370605469	-9.927297592163088	1203.187622070313	-263.4165039062501	27.28854560852051	1318.082763671875	-265.4128417968751	76.63659667968751	1331.093627929688	-328.9970703125001	126.0489730834961	1330.530151367188	-339.5668640136719	101.7974166870117	1038.1201171875	-424.5897216796876	62.54174041748048	1015.875122070313	-351.8876037597657	70.14099884033205	997.6592407226565	-405.0388793945314	217.3247528076172	829.1668090820315	-384.5056152343751	175.8114318847657	822.3704833984377	-441.530242919922	259.7134399414063	761.3394165039064	-381.2480163574219	182.9485321044922	751.1934814453126	-438.934539794922	-16.65657615661621	1208.391845703125	-95.6110076904297	27.70660209655762	1312.1728515625	-87.07154846191408	71.50048065185548	1320.898071289063	-16.79088592529297	127.6063919067383	1323.348266601563	-7.239890098571779	44.19649887084962	1029.459106445313	69.39862060546876	16.57535934448243	1018.37060546875	-3.726481199264527	11.33612251281738	999.0014648437502	44.22249603271485	110.4294357299805	802.4782714843752	66.17594146728517	45.89193725585938	809.9456176757815	98.01522064208987	116.7111434936524	715.8310546875001	68.6284866333008	28.32028198242188	737.4511718750001	98.9934005737305	
